<svg width="51" height="51" viewBox="0 0 51 51" fill="none" xmlns="http://www.w3.org/2000/svg">
<path fill-rule="evenodd" clip-rule="evenodd" d="M51 25.5C51 39.5832 39.5832 51 25.5 51C11.4168 51 0 39.5832 0 25.5C0 11.4168 11.4168 0 25.5 0C39.5832 0 51 11.4168 51 25.5ZM17.076 23.1641C14.5215 24.2794 11.8969 25.4254 9.49689 26.7474C8.24369 27.6649 9.90928 28.314 11.4719 28.9228C11.7203 29.0196 11.9661 29.1154 12.1972 29.211C12.3895 29.2702 12.585 29.3324 12.7831 29.3955C14.5211 29.9492 16.4589 30.5666 18.1461 29.6379C20.9178 28.0457 23.5333 26.2051 26.147 24.3658C27.0032 23.7631 27.8593 23.1607 28.7205 22.5672C28.7609 22.5414 28.8064 22.5118 28.8562 22.4796C29.5899 22.0039 31.24 20.9343 30.6296 22.4082C29.1863 23.9867 27.6403 25.3839 26.086 26.7888C25.0383 27.7356 23.9869 28.6859 22.9605 29.6974C22.0666 30.4237 21.1383 31.8843 22.1393 32.9015C24.4448 34.5154 26.7864 36.0903 29.1265 37.6642C29.888 38.1764 30.6495 38.6885 31.4094 39.2019C32.6974 40.2302 34.7103 39.3983 34.9934 37.7915C35.1193 37.0523 35.2458 36.3133 35.3722 35.5741C36.0709 31.4891 36.7698 27.4026 37.3872 23.3043C37.4712 22.6614 37.5663 22.0186 37.6615 21.3755C37.8921 19.8167 38.1231 18.256 38.1953 16.6888C38.0093 15.1248 36.113 15.4687 35.0577 15.8204C29.6334 17.8844 24.2634 20.1014 18.9145 22.3575C18.3086 22.6259 17.6943 22.8941 17.076 23.1641Z" fill="white"/>
</svg>
